# Octahedron OBJ File
# Вершины (x, y, z)
v  0.000000  1.000000  0.000000
v  1.000000  0.000000  0.000000
v  0.000000  0.000000  1.000000
v -1.000000  0.000000  0.000000
v  0.000000  0.000000 -1.000000
v  0.000000 -1.000000  0.000000

# Текстурные координаты (u, v)
vt 0.500000 1.000000
vt 0.000000 0.500000
vt 0.500000 0.500000
vt 1.000000 0.500000
vt 0.500000 0.000000

# Векторы нормалей (nx, ny, nz)
vn  0.577350  0.577350  0.577350
vn -0.577350  0.577350  0.577350
vn -0.577350  0.577350 -0.577350
vn  0.577350  0.577350 -0.577350
vn  0.577350 -0.577350  0.577350
vn -0.577350 -0.577350  0.577350
vn -0.577350 -0.577350 -0.577350
vn  0.577350 -0.577350 -0.577350

# Грани: f v1/vt1/vn1 v2/vt2/vn2 v3/vt3/vn3
# Верхняя пирамида
f 1/1/1 3/3/1 2/4/1
f 1/1/2 4/2/2 3/3/2
f 1/1/3 5/3/3 4/2/3
f 1/1/4 2/4/4 5/3/4

# Нижняя пирамида
f 6/5/5 2/4/5 3/3/5
f 6/5/6 3/3/6 4/2/6
f 6/5/7 4/2/7 5/3/7
f 6/5/8 5/3/8 2/4/8

