# Тетраэдр с однотонными гранями 

# ГРАНЬ 1: Красная (Вершины 1, 2, 3)
v  1.0  1.0  1.0  1.0 0.0 0.0
v  1.0 -1.0 -1.0  1.0 0.0 0.0
v -1.0  1.0 -1.0  1.0 0.0 0.0

# ГРАНЬ 2: Зеленая (Вершины 4, 5, 6)
v  1.0  1.0  1.0  0.0 1.0 0.0
v -1.0 -1.0  1.0  0.0 1.0 0.0
v  1.0 -1.0 -1.0  0.0 1.0 0.0

# ГРАНЬ 3: Синяя (Вершины 7, 8, 9)
v -1.0  1.0 -1.0  0.0 0.0 1.0
v  1.0 -1.0 -1.0  0.0 0.0 1.0
v -1.0 -1.0  1.0  0.0 0.0 1.0

# ГРАНЬ 4: Желтая (Вершины 10, 11, 12)
v  1.0  1.0  1.0  1.0 1.0 0.0
v -1.0  1.0 -1.0  1.0 1.0 0.0
v -1.0 -1.0  1.0  1.0 1.0 0.0

# Описание 4 граней
f 1 2 3
f 4 5 6
f 7 8 9
f 10 11 12